<?xml version="1.0" encoding="UTF-8"?>
<svg id="Layer_2" data-name="Layer 2" xmlns="http://www.w3.org/2000/svg" viewBox="0 0 50 50">
  <defs>
    <style>
      .cls-1 {
        fill: #fff;
      }

      .cls-2 {
        fill: #231f20;
      }
    </style>
  </defs>
  <path class="cls-2" d="M50,13.35v24.29h-13.68c.18-.14,.35-.29,.52-.44h12.72V13.79H.45v23.41H20.74c.17,.15,.34,.3,.52,.44H0V13.35H2.24v.22h.44v-.22H7.18v.22h.45v-.22h4.45v.22h.45v-.22h6.9v.22h.44v-.22h20.29v.22h.44v-.22h6.35v.18h.44v-.18h1.34v.22h.45v-.22h.82Z"/>
  <path class="cls-1" d="M49.56,13.79v23.41h-12.72c2.35-2.04,3.91-4.97,4.17-8.26h1.87v-3.7h-2.14c-1.24-5.45-6.13-9.53-11.95-9.53v-1.92h20.77Zm-4.36,3.21c0-.95-.77-1.72-1.73-1.72s-1.72,.77-1.72,1.72,.77,1.73,1.72,1.73,1.73-.78,1.73-1.73Z"/>
  <rect class="cls-2" x="48.73" y="13.35" width=".45" height=".22"/>
  <polygon class="cls-2" points="49.18 11.75 49.18 13.35 48.73 13.35 48.73 12.19 47.96 12.19 47.39 12.77 47.39 12.62 46.95 12.62 46.95 11.58 40.6 11.58 40.6 13.35 40.16 13.35 40.16 11.13 47.39 11.13 47.39 12.14 47.78 11.75 49.18 11.75"/>
  <polygon class="cls-1" points="48.73 12.19 48.73 13.35 47.39 13.35 47.39 12.77 47.96 12.19 48.73 12.19"/>
  <rect class="cls-2" x="46.95" y="13.35" width=".44" height=".18"/>
  <polygon class="cls-2" points="47.39 12.77 47.39 13.35 46.95 13.35 46.95 13.21 47.39 12.77"/>
  <polygon class="cls-2" points="47.39 12.62 47.39 12.77 46.95 13.21 46.95 12.62 47.39 12.62"/>
  <polygon class="cls-1" points="46.95 13.21 46.95 13.35 40.6 13.35 40.6 11.58 46.95 11.58 46.95 12.62 46.95 13.21"/>
  <path class="cls-2" d="M43.47,15.28c.96,0,1.73,.77,1.73,1.72s-.77,1.73-1.73,1.73-1.72-.78-1.72-1.73,.77-1.72,1.72-1.72Zm1.29,1.72c0-.71-.58-1.28-1.29-1.28s-1.28,.57-1.28,1.28,.58,1.29,1.28,1.29,1.29-.58,1.29-1.29Z"/>
  <path class="cls-1" d="M43.47,15.72c.71,0,1.29,.57,1.29,1.28s-.58,1.29-1.29,1.29-1.28-.58-1.28-1.29,.58-1.28,1.28-1.28Z"/>
  <path class="cls-2" d="M42.88,25.24v3.7h-1.87c.01-.15,.02-.3,.02-.45h1.41v-2.8h-1.61c-.02-.15-.05-.3-.09-.45h2.14Z"/>
  <path class="cls-1" d="M42.44,25.69v2.8h-1.41c.02-.17,.02-.35,.02-.52,0-.78-.07-1.54-.22-2.28h1.61Z"/>
  <path class="cls-2" d="M41.05,27.97c0,.17,0,.35-.02,.52h-.2v.45h.18c-.26,3.29-1.82,6.22-4.17,8.26h-.59l-.03-.04c2.68-2.18,4.39-5.49,4.39-9.19,0-6.52-5.3-11.82-11.82-11.82s-11.82,5.3-11.82,11.82c0,3.7,1.71,7.01,4.39,9.19l-.03,.04h-.59c-2.58-2.24-4.21-5.55-4.21-9.23,0-6.76,5.5-12.26,12.26-12.26,5.82,0,10.71,4.08,11.95,9.53h-.17v.45h.26c.15,.74,.22,1.5,.22,2.28Z"/>
  <path class="cls-2" d="M41.03,28.49c0,.15-.01,.3-.02,.45h-.18v-.45h.2Z"/>
  <path class="cls-2" d="M40.83,25.69h-.26v-.45h.17c.04,.15,.07,.3,.09,.45Z"/>
  <rect class="cls-2" x="40.16" y="13.35" width=".44" height=".22"/>
  <path class="cls-1" d="M28.79,16.15c6.52,0,11.82,5.3,11.82,11.82,0,3.7-1.71,7.01-4.39,9.19-2.03,1.64-4.61,2.63-7.43,2.63s-5.4-.99-7.43-2.63c-2.68-2.18-4.39-5.49-4.39-9.19,0-6.52,5.31-11.82,11.82-11.82Zm9.47,11.82c0-5.22-4.25-9.47-9.47-9.47s-9.47,4.25-9.47,9.47,4.25,9.47,9.47,9.47,9.47-4.25,9.47-9.47Z"/>
  <path class="cls-2" d="M36.25,37.2h.59c-.17,.15-.34,.3-.52,.44h-.07v-.44Z"/>
  <path class="cls-2" d="M36.25,37.64h.07c-2.08,1.62-4.7,2.59-7.53,2.59s-5.45-.97-7.53-2.59h.07v-.44l.03-.04c2.03,1.64,4.62,2.63,7.43,2.63s5.4-.99,7.43-2.63l.03,.04v.44Z"/>
  <path class="cls-2" d="M28.79,18.5c5.22,0,9.47,4.25,9.47,9.47s-4.25,9.47-9.47,9.47-9.47-4.25-9.47-9.47,4.25-9.47,9.47-9.47Zm9.03,9.47c0-4.98-4.05-9.03-9.03-9.03s-9.02,4.05-9.02,9.03,4.05,9.03,9.02,9.03,9.03-4.05,9.03-9.03Z"/>
  <path class="cls-1" d="M28.79,18.94c4.98,0,9.03,4.05,9.03,9.03s-4.05,9.03-9.03,9.03-9.02-4.05-9.02-9.03,4.05-9.03,9.02-9.03Zm6.38,9.03c0-3.52-2.86-6.38-6.38-6.38s-6.38,2.86-6.38,6.38,2.86,6.38,6.38,6.38,6.38-2.86,6.38-6.38Z"/>
  <path class="cls-2" d="M28.79,21.59c3.52,0,6.38,2.86,6.38,6.38s-2.86,6.38-6.38,6.38-6.38-2.86-6.38-6.38,2.86-6.38,6.38-6.38Zm5.94,6.38c0-3.27-2.66-5.94-5.94-5.94s-5.94,2.67-5.94,5.94,2.67,5.94,5.94,5.94,5.94-2.67,5.94-5.94Z"/>
  <circle class="cls-1" cx="28.79" cy="27.97" r="5.94"/>
  <path class="cls-1" d="M28.79,13.79v1.92c-6.76,0-12.26,5.5-12.26,12.26,0,3.68,1.63,6.99,4.21,9.23H.45V13.79H28.79Zm-14.98,20.78c1.17,0,2.12-.96,2.12-2.12,0-.75-.38-1.43-1.01-1.81v-3.53h-2.21v3.53c-.63,.38-1.02,1.06-1.02,1.81,0,1.16,.95,2.12,2.12,2.12Z"/>
  <path class="cls-2" d="M21.33,37.2v.44h-.07c-.18-.14-.35-.29-.52-.44h.59Z"/>
  <polygon class="cls-2" points="20.24 9.76 20.24 12.23 19.87 12.23 19.87 13.35 19.43 13.35 19.43 11.79 19.79 11.79 19.79 10.21 12.16 10.21 12.16 11.79 12.53 11.79 12.53 13.35 12.08 13.35 12.08 12.23 11.72 12.23 11.72 9.76 20.24 9.76"/>
  <rect class="cls-2" x="19.43" y="13.35" width=".44" height=".22"/>
  <polygon class="cls-1" points="19.79 10.21 19.79 11.79 19.43 11.79 19.43 13.35 12.53 13.35 12.53 11.79 12.16 11.79 12.16 10.21 19.79 10.21"/>
  <path class="cls-2" d="M15.93,32.45c0,1.16-.95,2.12-2.12,2.12s-2.12-.96-2.12-2.12c0-.75,.39-1.43,1.02-1.81v-3.53h2.21v3.53c.63,.38,1.01,1.06,1.01,1.81Zm-.44,0c0-.63-.34-1.2-.9-1.49l-.12-.06v-3.35h-1.32v3.35l-.12,.06c-.55,.29-.9,.86-.9,1.49,0,.92,.76,1.67,1.68,1.67s1.68-.75,1.68-1.67Z"/>
  <path class="cls-1" d="M14.59,30.96c.56,.29,.9,.86,.9,1.49,0,.92-.75,1.67-1.68,1.67s-1.68-.75-1.68-1.67c0-.63,.35-1.2,.9-1.49l.12-.06v-3.35h1.32v3.35l.12,.06Z"/>
  <rect class="cls-2" x="12.08" y="13.35" width=".45" height=".22"/>
  <rect class="cls-2" x="7.18" y="13.35" width=".45" height=".22"/>
  <polygon class="cls-2" points="7.63 11.91 7.63 13.35 7.18 13.35 7.18 12.1 6.74 11.66 3.13 11.66 2.68 12.1 2.68 13.35 2.24 13.35 2.24 11.91 2.94 11.21 6.93 11.21 7.63 11.91"/>
  <polygon class="cls-1" points="7.18 12.1 7.18 13.35 2.68 13.35 2.68 12.1 3.13 11.66 6.74 11.66 7.18 12.1"/>
  <rect class="cls-2" x="2.24" y="13.35" width=".44" height=".22"/>
</svg>