<?xml version="1.0" encoding="UTF-8"?>
<svg id="Layer_2" data-name="Layer 2" xmlns="http://www.w3.org/2000/svg" viewBox="0 0 50 50">
  <defs>
    <style>
      .cls-1 {
        fill: #fff;
      }

      .cls-2 {
        fill: #231f20;
      }
    </style>
  </defs>
  <g>
    <path class="cls-2" d="M46.7,28.03c.6,0,1.1,.49,1.1,1.1s-.49,1.1-1.1,1.1-1.1-.49-1.1-1.1,.49-1.1,1.1-1.1Z"/>
    <rect class="cls-1" x=".29" y="26.65" width="6.03" height="12.63"/>
    <path class="cls-1" d="M49.71,26.65v12.63h-6.75v-12.63h6.75Zm-1.91,2.47c0-.61-.49-1.1-1.1-1.1s-1.1,.49-1.1,1.1,.49,1.1,1.1,1.1,1.1-.49,1.1-1.1Z"/>
    <polygon class="cls-1" points="42.95 26.65 42.95 39.28 35.3 39.28 35.3 31.24 13.57 31.24 13.57 39.28 6.32 39.28 6.32 26.65 42.95 26.65"/>
    <polygon class="cls-1" points="49.71 26.65 42.95 26.65 6.32 26.65 .29 26.65 6.32 22.42 11.16 22.42 11.16 24.26 15.54 24.26 33.33 24.26 38.07 24.26 38.07 22.42 43.68 22.42 49.71 26.65"/>
    <polygon class="cls-1" points="15.54 14.14 15.54 24.26 11.16 24.26 11.16 22.42 11.16 14.14 15.54 14.14"/>
    <polygon class="cls-1" points="29.5 3.58 33.38 7.84 33.38 7.93 29.5 7.93 29.5 3.58"/>
    <polygon class="cls-1" points="38.07 22.42 38.07 24.26 33.33 24.26 33.36 14.14 38.07 14.14 38.07 22.42"/>
    <polygon class="cls-1" points="33.36 14.14 33.33 24.26 15.54 24.26 15.54 14.14 15.54 3.58 29.5 3.58 29.5 7.93 33.38 7.93 33.36 14.14"/>
    <polygon class="cls-2" points="35.3 31.24 35.3 39.28 32.33 39.28 32.29 39.28 31.79 34.83 17.19 34.83 16.66 39.28 16.65 39.28 13.57 39.28 13.57 31.24 35.3 31.24"/>
    <polygon class="cls-1" points="32.29 39.28 33.33 48.63 15.54 48.63 16.65 39.28 16.66 39.28 32.29 39.28"/>
    <polygon class="cls-1" points="32.29 39.28 16.66 39.28 17.19 34.83 31.79 34.83 32.29 39.28"/>
  </g>
  <g>
    <polygon class="cls-2" points="16.65 39.58 0 39.58 0 26.5 6.23 22.12 11.16 22.12 11.16 22.71 6.42 22.71 .59 26.8 .59 38.99 16.65 38.99 16.65 39.58"/>
    <polygon class="cls-2" points="50 39.58 32.33 39.58 32.33 38.99 49.41 38.99 49.41 26.8 43.58 22.71 38.07 22.71 38.07 22.12 43.77 22.12 50 26.5 50 39.58"/>
    <polygon class="cls-2" points="38.36 24.55 33.33 24.55 33.33 23.97 37.78 23.97 37.78 14.44 33.36 14.44 33.33 13.85 38.36 13.85 38.36 24.55"/>
    <polygon class="cls-2" points="15.54 24.55 10.87 24.55 10.87 13.85 15.54 13.85 15.54 14.44 11.45 14.44 11.45 23.97 15.54 23.97 15.54 24.55"/>
    <path class="cls-2" d="M33.63,24.55H15.25V3.28h14.38l4.05,4.45v.2l-.05,16.62Zm-17.79-.59h17.21l.05-16.01-3.72-4.09H15.83V23.97Z"/>
    <polygon class="cls-2" points="33.38 8.22 29.2 8.22 29.2 3.58 29.79 3.58 29.79 7.63 33.38 7.63 33.38 8.22"/>
    <path class="cls-2" d="M33.66,48.92H15.21l1.71-14.39h15.12l1.61,14.39Zm-17.79-.59h17.14l-1.48-13.22h-14.08l-1.58,13.22Z"/>
    <path class="cls-2" d="M46.7,30.51c-.77,0-1.39-.62-1.39-1.39s.62-1.39,1.39-1.39,1.39,.62,1.39,1.39-.62,1.39-1.39,1.39Zm0-2.19c-.44,0-.81,.36-.81,.81s.36,.8,.81,.8,.8-.36,.8-.8-.36-.81-.8-.81Z"/>
    <rect class="cls-2" x="42.66" y="26.65" width=".59" height="12.63"/>
    <rect class="cls-2" x="6.03" y="26.65" width=".59" height="12.63"/>
    <rect class="cls-2" x=".29" y="26.36" width="49.41" height=".59"/>
  </g>
</svg>